<svg width="199" height="60" viewBox="0 0 199 60" fill="none" xmlns="http://www.w3.org/2000/svg">
<g clip-path="url(#clip0_10_230)">
<path d="M59.6167 13.6C59.489 12.7889 59.1177 12.0358 58.5522 11.4405C57.9866 10.8452 57.2535 10.4358 56.45 10.2667L46.6667 8.11671C45.6175 7.88789 44.5315 7.88704 43.482 8.11419C42.4325 8.34134 41.444 8.79121 40.5833 9.43337L11.6667 30.5L3.56667 30.1667C2.91553 30.1434 2.2736 30.3259 1.73205 30.6881C1.1905 31.0504 0.776876 31.5742 0.54992 32.1849C0.322963 32.7957 0.294215 33.4624 0.46776 34.0904C0.641304 34.7184 1.00832 35.2758 1.51667 35.6834L9.85 42.2334C10.85 43.45 11.5167 43.2167 28.0667 34.2L29.6167 49.9C29.6425 50.3283 29.7893 50.7405 30.0401 51.0886C30.2908 51.4368 30.6353 51.7066 31.0333 51.8667C31.3197 51.9799 31.6254 52.0365 31.9333 52.0334C32.5532 52.0144 33.1452 51.7717 33.6 51.35L37.5833 47.7167C37.98 47.3492 38.2486 46.8645 38.35 46.3334L42 26.5C47.95 23.1667 53.5833 20.0334 57.6 17.75C58.3186 17.3458 58.8967 16.7319 59.2571 15.9903C59.6175 15.2487 59.7429 14.4148 59.6167 13.6V13.6ZM55.95 14.85C51.7833 17.2167 45.95 20.5334 39.6833 23.9667L39 24.35L35.1167 45.4667L32.6667 47.7L30.8333 28.8667L28.6167 30C16.6667 36.6667 12.6833 38.6 11.3167 39.2L4.15 33.5167L12.6167 33.8834L42.6167 12.1167C43.0882 11.7642 43.6289 11.5151 44.2033 11.3859C44.7777 11.2567 45.3729 11.2501 45.95 11.3667L55.7 13.4667C55.8502 13.4939 55.9879 13.5685 56.0928 13.6794C56.1977 13.7903 56.2645 13.9319 56.2833 14.0834C56.3176 14.23 56.3037 14.3838 56.2437 14.5219C56.1836 14.66 56.0806 14.7751 55.95 14.85V14.85Z" fill="white"/>
<path d="M11.6667 20.9001L17.6 22.5667L20.3334 20.5834L13.6667 18.6501L16.6667 16.8167L25.7834 16.5501L29.6167 13.7667L16.6667 14.1667C16.2584 14.1446 15.8527 14.2432 15.5 14.4501L11.1167 17.0001C10.7543 17.2147 10.4636 17.5319 10.2812 17.9115C10.0987 18.2912 10.0328 18.7163 10.0916 19.1334C10.1504 19.5505 10.3314 19.9408 10.6117 20.2552C10.892 20.5696 11.2591 20.794 11.6667 20.9001V20.9001Z" fill="white"/>
</g>
<path d="M72.0071 38L67.8523 24.3636H70.054L73.0014 34.804H73.1435L76.0554 24.3636H78.2926L81.169 34.7685H81.3111L84.2585 24.3636H86.4602L82.3054 38H80.2457L77.2628 27.5241H77.0497L74.0668 38H72.0071ZM93.2429 38.3196C92.3788 38.3196 91.5946 38.1568 90.8903 37.8313C90.186 37.4999 89.6267 37.0234 89.2124 36.402C88.7981 35.7746 88.5909 35.017 88.5909 34.1293C88.5909 33.348 88.7448 32.7147 89.0526 32.2294C89.3603 31.7382 89.7717 31.3535 90.2866 31.0753C90.8015 30.7971 91.3697 30.59 91.9911 30.4538C92.6185 30.3118 93.2488 30.1993 93.8821 30.1165C94.7107 30.0099 95.3825 29.93 95.8974 29.8768C96.4182 29.8176 96.797 29.7199 97.0337 29.5838C97.2764 29.4477 97.3977 29.2109 97.3977 28.8736V28.8026C97.3977 27.9266 97.158 27.246 96.6786 26.7607C96.2051 26.2753 95.486 26.0327 94.5213 26.0327C93.5211 26.0327 92.7369 26.2517 92.1687 26.6896C91.6005 27.1276 91.201 27.5952 90.9702 28.0923L88.9815 27.3821C89.3366 26.5535 89.8101 25.9084 90.402 25.4467C90.9998 24.9792 91.6508 24.6536 92.3551 24.4702C93.0653 24.2808 93.7637 24.1861 94.4503 24.1861C94.8883 24.1861 95.3913 24.2393 95.9595 24.3459C96.5336 24.4465 97.087 24.6566 97.6197 24.9762C98.1583 25.2958 98.6051 25.7782 98.9602 26.4233C99.3153 27.0684 99.4929 27.9325 99.4929 29.0156V38H97.3977V36.1534H97.2912C97.1491 36.4493 96.9124 36.766 96.581 37.1033C96.2495 37.4407 95.8086 37.7277 95.2582 37.9645C94.7077 38.2012 94.036 38.3196 93.2429 38.3196ZM93.5625 36.4375C94.3911 36.4375 95.0895 36.2747 95.6577 35.9492C96.2318 35.6237 96.6638 35.2035 96.9538 34.6886C97.2498 34.1737 97.3977 33.6321 97.3977 33.0639V31.1463C97.3089 31.2528 97.1136 31.3505 96.8118 31.4393C96.5159 31.5221 96.1726 31.5961 95.782 31.6612C95.3973 31.7204 95.0214 31.7737 94.6545 31.821C94.2934 31.8625 94.0005 31.898 93.7756 31.9276C93.2311 31.9986 92.7221 32.114 92.2486 32.2738C91.781 32.4277 91.4022 32.6615 91.1122 32.9751C90.8281 33.2829 90.6861 33.7031 90.6861 34.2358C90.6861 34.9638 90.9554 35.5142 91.494 35.8871C92.0385 36.254 92.728 36.4375 93.5625 36.4375ZM105.412 29.7969V38H103.317V24.3636H105.341V26.4943H105.519C105.838 25.8018 106.324 25.2455 106.975 24.8253C107.626 24.3991 108.466 24.1861 109.496 24.1861C110.419 24.1861 111.227 24.3755 111.92 24.7543C112.612 25.1271 113.151 25.6953 113.535 26.4588C113.92 27.2164 114.112 28.1752 114.112 29.3352V38H112.017V29.4773C112.017 28.406 111.739 27.5715 111.183 26.9737C110.626 26.37 109.863 26.0682 108.892 26.0682C108.224 26.0682 107.626 26.2132 107.099 26.5032C106.578 26.7932 106.167 27.2164 105.865 27.7727C105.563 28.3291 105.412 29.0038 105.412 29.7969ZM123.09 38.2841C121.954 38.2841 120.951 37.997 120.081 37.4229C119.211 36.8429 118.53 36.0262 118.039 34.9727C117.547 33.9132 117.302 32.6615 117.302 31.2173C117.302 29.785 117.547 28.5421 118.039 27.4886C118.53 26.4351 119.214 25.6213 120.089 25.0472C120.965 24.4731 121.978 24.1861 123.126 24.1861C124.013 24.1861 124.715 24.334 125.23 24.63C125.751 24.92 126.147 25.2514 126.419 25.6243C126.698 25.9912 126.914 26.2931 127.067 26.5298H127.245V19.8182H129.34V38H127.316V35.9048H127.067C126.914 36.1534 126.695 36.4671 126.411 36.8459C126.126 37.2187 125.721 37.5531 125.194 37.8491C124.667 38.1391 123.966 38.2841 123.09 38.2841ZM123.374 36.402C124.215 36.402 124.925 36.183 125.505 35.745C126.085 35.3011 126.526 34.6886 126.828 33.9073C127.13 33.1201 127.281 32.2116 127.281 31.1818C127.281 30.1638 127.133 29.2731 126.837 28.5096C126.541 27.7402 126.103 27.1424 125.523 26.7163C124.943 26.2842 124.227 26.0682 123.374 26.0682C122.487 26.0682 121.747 26.296 121.155 26.7518C120.569 27.2016 120.128 27.8142 119.832 28.5895C119.542 29.3589 119.397 30.223 119.397 31.1818C119.397 32.1525 119.545 33.0343 119.841 33.8274C120.143 34.6146 120.587 35.242 121.173 35.7095C121.764 36.1712 122.498 36.402 123.374 36.402ZM139.186 38.2841C137.872 38.2841 136.738 37.9941 135.786 37.4141C134.839 36.8281 134.108 36.0114 133.593 34.9638C133.084 33.9103 132.829 32.6851 132.829 31.2884C132.829 29.8916 133.084 28.6605 133.593 27.5952C134.108 26.5239 134.824 25.6894 135.741 25.0916C136.664 24.4879 137.742 24.1861 138.973 24.1861C139.683 24.1861 140.384 24.3045 141.077 24.5412C141.769 24.7779 142.4 25.1626 142.968 25.6953C143.536 26.2221 143.989 26.9205 144.326 27.7905C144.663 28.6605 144.832 29.7318 144.832 31.0043V31.892H134.321V30.081H142.701C142.701 29.3116 142.547 28.625 142.24 28.0213C141.938 27.4176 141.506 26.9412 140.944 26.592C140.387 26.2428 139.73 26.0682 138.973 26.0682C138.138 26.0682 137.416 26.2753 136.806 26.6896C136.203 27.098 135.738 27.6307 135.413 28.2876C135.087 28.9446 134.924 29.6489 134.924 30.4006V31.608C134.924 32.6378 135.102 33.5108 135.457 34.2269C135.818 34.9371 136.318 35.4787 136.957 35.8516C137.597 36.2185 138.339 36.402 139.186 36.402C139.736 36.402 140.233 36.325 140.677 36.1712C141.127 36.0114 141.515 35.7746 141.84 35.4609C142.166 35.1413 142.417 34.7448 142.595 34.2713L144.619 34.8395C144.406 35.526 144.048 36.1297 143.545 36.6506C143.042 37.1655 142.42 37.5679 141.68 37.858C140.941 38.142 140.109 38.2841 139.186 38.2841ZM148.019 38V24.3636H150.043V26.4233H150.185C150.434 25.7486 150.884 25.2011 151.535 24.7809C152.186 24.3607 152.92 24.1506 153.737 24.1506C153.89 24.1506 154.083 24.1535 154.314 24.1594C154.544 24.1654 154.719 24.1742 154.837 24.1861V26.3168C154.766 26.299 154.604 26.2724 154.349 26.2369C154.1 26.1954 153.837 26.1747 153.559 26.1747C152.896 26.1747 152.304 26.3138 151.783 26.592C151.268 26.8642 150.86 27.243 150.558 27.7283C150.262 28.2077 150.114 28.7552 150.114 29.3707V38H148.019ZM159.416 19.8182V38H157.321V19.8182H159.416ZM171.847 32.4247V24.3636H173.942V38H171.847V35.6918H171.705C171.386 36.3842 170.888 36.9731 170.214 37.4585C169.539 37.9379 168.687 38.1776 167.657 38.1776C166.805 38.1776 166.047 37.9911 165.384 37.6183C164.721 37.2395 164.201 36.6713 163.822 35.9137C163.443 35.1502 163.254 34.1884 163.254 33.0284V24.3636H165.349V32.8864C165.349 33.8807 165.627 34.6738 166.183 35.2656C166.746 35.8575 167.462 36.1534 168.332 36.1534C168.853 36.1534 169.382 36.0202 169.921 35.7539C170.465 35.4876 170.921 35.0792 171.288 34.5288C171.661 33.9783 171.847 33.277 171.847 32.4247ZM187.439 27.4176L185.557 27.9503C185.439 27.6366 185.264 27.3318 185.033 27.0359C184.808 26.734 184.5 26.4854 184.11 26.2901C183.719 26.0948 183.219 25.9972 182.609 25.9972C181.775 25.9972 181.08 26.1895 180.523 26.5742C179.973 26.953 179.698 27.4354 179.698 28.0213C179.698 28.5421 179.887 28.9535 180.266 29.2553C180.645 29.5572 181.236 29.8087 182.041 30.0099L184.065 30.5071C185.285 30.803 186.193 31.2558 186.791 31.8654C187.389 32.4691 187.688 33.2474 187.688 34.2003C187.688 34.9815 187.463 35.6799 187.013 36.2955C186.569 36.911 185.948 37.3963 185.149 37.7514C184.35 38.1065 183.42 38.2841 182.361 38.2841C180.97 38.2841 179.819 37.9822 178.907 37.3786C177.996 36.7749 177.419 35.893 177.176 34.733L179.165 34.2358C179.354 34.9697 179.712 35.5201 180.239 35.8871C180.772 36.254 181.467 36.4375 182.325 36.4375C183.302 36.4375 184.077 36.2304 184.651 35.8161C185.231 35.3958 185.521 34.8928 185.521 34.3068C185.521 33.8333 185.356 33.4368 185.024 33.1172C184.693 32.7917 184.184 32.549 183.497 32.3892L181.225 31.8565C179.976 31.5606 179.058 31.1019 178.472 30.4805C177.892 29.8531 177.602 29.0689 177.602 28.1278C177.602 27.3584 177.818 26.6778 178.25 26.0859C178.688 25.4941 179.283 25.0295 180.035 24.6921C180.792 24.3548 181.651 24.1861 182.609 24.1861C183.959 24.1861 185.018 24.482 185.788 25.0739C186.563 25.6657 187.113 26.447 187.439 27.4176ZM196.772 24.3636V26.1392H189.705V24.3636H196.772ZM191.765 21.0966H193.86V34.0938C193.86 34.6856 193.946 35.1295 194.117 35.4254C194.295 35.7154 194.52 35.9107 194.792 36.0114C195.07 36.1061 195.363 36.1534 195.671 36.1534C195.902 36.1534 196.091 36.1416 196.239 36.1179C196.387 36.0883 196.506 36.0646 196.594 36.0469L197.02 37.929C196.878 37.9822 196.68 38.0355 196.426 38.0888C196.171 38.148 195.849 38.1776 195.458 38.1776C194.866 38.1776 194.286 38.0503 193.718 37.7958C193.156 37.5413 192.688 37.1536 192.315 36.6328C191.948 36.112 191.765 35.455 191.765 34.6619V21.0966Z" fill="white"/>
<defs>
<clipPath id="clip0_10_230">
<rect width="60" height="60" fill="white"/>
</clipPath>
</defs>
</svg>
